# xmcd
#
# Track frame offsets:
#	150
#	27050
#	49925
#
# Disc length: 1022 seconds
#
# Revision: 1
# Processed by: cddbd v1.5.1PL0 Copyright (c) Steve Scherf et al.
# Submitted via: CDex 1.50Beta5
#
DISCID=1c03fc03
DTITLE=中山美穂 - 遠い街のどこかで・・・
DYEAR=1900
DGENRE=Pop
TTITLE0=遠い街のどこかで・・・
TTITLE1=Tell Me
TTITLE2=遠い街のどこかで・・・(オリジナル・カラオケ)
EXTD=
EXTT0=
EXTT1=
EXTT2=
PLAYORDER=
